<svg width="48" height="32" viewBox="0 0 48 32" fill="none" xmlns="http://www.w3.org/2000/svg">
<path fill-rule="evenodd" clip-rule="evenodd" d="M17.4144 0.00591154C17.3557 0.00198691 17.2967 0 17.2374 0H16.218H30.2145H31.5787H30.5593C30.5 0 30.441 0.00198691 30.3823 0.00591154C31.1981 0.063499 31.9305 0.538095 32.3082 1.26565L47.8696 31.2448C47.9076 31.3181 47.9275 31.3994 47.9275 31.4818C47.9275 31.768 47.6933 32 47.4043 32H36.7212C35.9371 32 35.2187 31.5658 34.8602 30.875L23.8983 9.75692L18.2704 20.5992H22.6543C23.4401 20.5992 24.1597 21.0353 24.5175 21.7283L29.0415 30.4917C29.1169 30.6378 29.1562 30.7995 29.1562 30.9636C29.1562 31.536 28.6878 32 28.1099 32H0.820996C0.387595 32 0.0362549 31.652 0.0362549 31.2227C0.0362549 31.099 0.066028 30.9772 0.123102 30.8672L15.4885 1.26565C15.8662 0.538095 16.5986 0.063499 17.4144 0.00591154Z" fill="#009DFF"/>
<path fill-rule="evenodd" clip-rule="evenodd" d="M18.2704 20.5996H22.6543C23.4401 20.5996 24.1597 21.0357 24.5175 21.7287L29.0415 30.4921C29.1169 30.6382 29.1562 30.7999 29.1562 30.964C29.1562 31.5364 28.6878 32.0004 28.1099 32.0004H11.0754C11.8596 32.0004 12.5779 31.5662 12.9365 30.8754L18.2704 20.5996Z" fill="url(#paint0_linear_1705_1022)"/>
<path fill-rule="evenodd" clip-rule="evenodd" d="M18.2704 20.5996L12.9365 30.8754C12.5779 31.5662 11.8596 32.0004 11.0754 32.0004H0.890254C0.766027 32.0004 0.643575 31.9712 0.53297 31.9152C0.147094 31.7197 -0.00575778 31.2514 0.191565 30.8692L4.83738 21.8699C5.23987 21.0902 6.0494 20.5996 6.93344 20.5996H18.2704Z" fill="url(#paint1_linear_1705_1022)"/>
<path fill-rule="evenodd" clip-rule="evenodd" d="M18.2704 20.5992H6.93347C6.04943 20.5992 5.2399 21.0898 4.8374 21.8694L15.4885 1.26565C15.8919 0.488523 16.7 0 17.5822 0H31.5787H30.5592C29.5791 0 28.6811 0.542804 28.2329 1.40627L18.2704 20.5992Z" fill="url(#paint2_linear_1705_1022)"/>
<path fill-rule="evenodd" clip-rule="evenodd" d="M19.5638 1.40627C19.1156 0.542804 18.2176 0 17.2375 0H16.218H30.2145C31.0967 0 31.9048 0.488523 32.3082 1.26565L47.8696 31.2448C47.9077 31.3181 47.9275 31.3994 47.9275 31.4818C47.9275 31.768 47.6933 32 47.4044 32H36.7213C35.9371 32 35.2188 31.5658 34.8602 30.875L19.5638 1.40627Z" fill="url(#paint3_linear_1705_1022)"/>
<defs>
<linearGradient id="paint0_linear_1705_1022" x1="22.6302" y1="24.0336" x2="19.974" y2="29.7767" gradientUnits="userSpaceOnUse">
<stop stop-color="#47B0FF"/>
<stop offset="1" stop-color="#009DFF"/>
</linearGradient>
<linearGradient id="paint1_linear_1705_1022" x1="5.65407" y1="28.5455" x2="8.04931" y2="22.976" gradientUnits="userSpaceOnUse">
<stop stop-color="#32BEFF"/>
<stop offset="1" stop-color="#5ECCFF"/>
</linearGradient>
<linearGradient id="paint2_linear_1705_1022" x1="11.5478" y1="18.2481" x2="19.06" y2="2.30543" gradientUnits="userSpaceOnUse">
<stop stop-color="#1970E3"/>
<stop offset="1" stop-color="#115FC6"/>
</linearGradient>
<linearGradient id="paint3_linear_1705_1022" x1="25.2792" y1="6.70682e-08" x2="41.7975" y2="31.8776" gradientUnits="userSpaceOnUse">
<stop stop-color="#62BBFF"/>
<stop offset="1" stop-color="#009DFF"/>
</linearGradient>
</defs>
</svg>
