<svg width="68" height="59" viewBox="0 0 68 59" fill="none" xmlns="http://www.w3.org/2000/svg">
<path fill-rule="evenodd" clip-rule="evenodd" d="M56.8148 40.0795C57.0978 39.917 57.3331 39.6831 57.4971 39.4011C57.6611 39.119 57.7479 38.7989 57.749 38.4727L57.7825 27.711C57.7835 27.3849 57.8704 27.0647 58.0343 26.7827C58.1983 26.5007 58.4336 26.2667 58.7167 26.1043L64.5545 22.7533C64.8374 22.5909 65.1581 22.5057 65.4844 22.5063C65.8106 22.5068 66.131 22.5931 66.4134 22.7564C66.6958 22.9197 66.9303 23.1544 67.0933 23.4368C67.2563 23.7192 67.3421 24.0395 67.3422 24.3656V43.9308C67.3421 44.2579 67.2557 44.5792 67.0917 44.8622C66.9277 45.1453 66.6918 45.3802 66.408 45.5431L44.3761 58.1886C44.0947 58.35 43.776 58.4351 43.4515 58.4354C43.127 58.4357 42.8081 58.3513 42.5263 58.1904L25.2362 48.3083C24.9514 48.1457 24.7146 47.9108 24.5499 47.6274C24.3852 47.3439 24.2984 47.022 24.2983 46.6942V36.8288C24.2983 36.8177 24.3113 36.8102 24.3225 36.8158C24.3318 36.8214 24.3448 36.8158 24.3448 36.8028V36.7916C24.3448 36.7842 24.3485 36.7767 24.356 36.773L38.596 28.5981C38.609 28.5906 38.6034 28.5702 38.5885 28.5702C38.5846 28.5702 38.5808 28.5686 38.578 28.5658C38.5752 28.563 38.5737 28.5593 38.5737 28.5553L38.6016 18.8834C38.6029 18.5563 38.5178 18.2347 38.355 17.951C38.1922 17.6672 37.9574 17.4314 37.6743 17.2673C37.3912 17.1032 37.0698 17.0167 36.7425 17.0163C36.4152 17.016 36.0936 17.1019 35.8101 17.2655L25.2269 23.3595C24.9444 23.522 24.6242 23.6076 24.2983 23.6076C23.9723 23.6076 23.6521 23.522 23.3696 23.3595L12.7529 17.2506C12.47 17.0879 12.1493 17.0023 11.8229 17.0025C11.4965 17.0028 11.176 17.0888 10.8933 17.2519C10.6107 17.4151 10.376 17.6497 10.2128 17.9321C10.0495 18.2145 9.96351 18.5349 9.96331 18.861V36.3416C9.96353 36.6674 9.87809 36.9876 9.71554 37.27C9.55298 37.5524 9.31903 37.7872 9.0371 37.9509C8.75516 38.1145 8.43515 38.2013 8.10911 38.2025C7.78307 38.2037 7.46244 38.1192 7.17932 37.9576L1.28753 34.5917C1.00216 34.4288 0.765042 34.1933 0.600299 33.9091C0.435555 33.6249 0.349061 33.3022 0.349612 32.9738L0.401719 2.42004C0.402428 2.09431 0.488741 1.77449 0.652018 1.49257C0.815296 1.21065 1.04981 0.976539 1.33209 0.813657C1.61437 0.650775 1.93451 0.56484 2.26047 0.564454C2.58642 0.564068 2.90677 0.649245 3.18943 0.811458L23.3715 12.3951C23.6535 12.5569 23.9731 12.6421 24.2983 12.6421C24.6235 12.6421 24.943 12.5569 25.225 12.3951L45.4015 0.811458C45.6846 0.64901 46.0054 0.563827 46.3319 0.564459C46.6583 0.56509 46.9788 0.651514 47.2613 0.815056C47.5437 0.978598 47.7781 1.2135 47.941 1.4962C48.1039 1.77889 48.1895 2.09942 48.1892 2.42562V32.9868C48.1894 33.3137 48.1032 33.6349 47.9395 33.918C47.7759 34.201 47.5404 34.436 47.2569 34.5991L36.6904 40.6801C36.4066 40.8436 36.171 41.0791 36.0074 41.3627C35.8438 41.6464 35.7581 41.9681 35.7588 42.2955C35.7596 42.6229 35.8468 42.9442 36.0117 43.2271C36.1766 43.51 36.4132 43.7444 36.6978 43.9066L42.5263 47.2223C42.808 47.3825 43.1267 47.4665 43.4508 47.4658C43.7749 47.4652 44.0932 47.38 44.3743 47.2186L56.8148 40.0795ZM58.0374 12.6648C58.0377 12.9936 58.1252 13.3165 58.2911 13.6006C58.4569 13.8846 58.6952 14.1196 58.9816 14.2816C59.268 14.4436 59.5923 14.5268 59.9214 14.5228C60.2505 14.5187 60.5726 14.4275 60.8549 14.2585L66.4378 10.9111C66.7134 10.7461 66.9415 10.5126 67.1 10.2333C67.2585 9.95401 67.3419 9.63848 67.3422 9.31742V2.49628C67.3416 2.16757 67.2538 1.84489 67.0878 1.56111C66.9218 1.27733 66.6835 1.04259 66.3971 0.880804C66.1108 0.719022 65.7866 0.635976 65.4577 0.640128C65.1288 0.64428 64.8069 0.73548 64.5247 0.904439L58.9418 4.25178C58.6662 4.4168 58.4381 4.65032 58.2796 4.92961C58.1211 5.20889 58.0377 5.52442 58.0374 5.84548V12.6666V12.6648Z" fill="#007FFF"/>
</svg>
