<svg width="60" height="54" viewBox="0 0 60 54" fill="none" xmlns="http://www.w3.org/2000/svg">
<path d="M54.798 24.1643C54.798 21.1585 51.1984 18.493 45.6636 16.8657C46.9951 11.3383 46.4137 6.94086 43.7639 5.45322C43.1141 5.09854 42.3809 4.918 41.6378 4.92971C39.1656 4.92971 36.0408 6.62676 32.885 9.56277C29.7292 6.64857 26.6134 4.96025 24.1456 4.96025C23.3909 4.94386 22.6458 5.12772 21.9885 5.49249C19.352 6.98449 18.806 11.3558 20.1198 16.857C14.6116 18.4755 11.0297 21.1192 11.0209 24.112C11.012 27.1047 14.6249 29.7833 20.1598 31.4062C18.8282 36.938 19.4052 41.3311 22.0595 42.8187C22.7068 43.1754 23.4391 43.3561 24.1811 43.3422C26.6578 43.3422 29.7825 41.6452 32.9383 38.7092C36.0897 41.6234 39.2055 43.3117 41.6778 43.3117C42.4321 43.3253 43.1765 43.1416 43.8349 42.7794C46.4714 41.2874 47.0129 36.9161 45.7035 31.4367C51.2117 29.7964 54.7936 27.1527 54.798 24.1643ZM34.9179 10.5487C38.553 7.35095 40.8256 7.0063 41.6334 7.0063C42.008 6.99447 42.379 7.08187 42.7075 7.25933C43.9769 7.97043 44.4829 10.4789 44.079 13.8032C43.9755 14.6521 43.8274 15.4953 43.6351 16.3291C41.7959 15.9089 39.9307 15.6073 38.0515 15.4261C36.9324 13.8826 35.7106 12.4135 34.3941 11.0286C34.5584 10.8672 34.7359 10.7058 34.9179 10.5487ZM23.9148 26.6379C24.261 27.2923 24.6294 27.9467 25.0111 28.6054C25.3928 29.2642 25.7923 29.9317 26.2361 30.5904C25.0333 30.4203 23.866 30.2065 22.7563 29.9535C23.067 28.8454 23.462 27.7547 23.9148 26.6379ZM22.6853 18.3316C23.8083 18.0742 24.9845 17.8604 26.2051 17.6946C25.7612 18.3403 25.3795 19.0034 24.98 19.697C24.5806 20.3907 24.2299 21.0058 23.8881 21.6689C23.4354 20.5347 23.0345 19.4222 22.6853 18.3316ZM24.9978 24.1512C25.5482 23.0082 26.1533 21.8652 26.8131 20.7222C27.4789 19.5793 28.1935 18.4668 28.9303 17.4023C30.2219 17.3063 31.5535 17.254 32.925 17.2584C34.2965 17.2627 35.5881 17.3107 36.8708 17.4111C37.6076 18.4668 38.3134 19.5923 38.9791 20.7048C39.6449 21.8173 40.2574 22.9821 40.8078 24.1207C40.2619 25.2637 39.6538 26.4111 38.9969 27.5453C38.34 28.6796 37.6165 29.8051 36.8797 30.8696C35.5881 30.9699 34.2565 31.0179 32.885 31.0179C31.5135 31.0179 30.2219 30.9612 28.9392 30.8609C28.2024 29.8051 27.4922 28.7058 26.8265 27.5671C26.1607 26.4285 25.5703 25.2899 25.0155 24.1512H24.9978ZM39.5828 17.7077C40.7901 17.8735 41.9574 18.0873 43.0626 18.3403C42.7341 19.4178 42.3435 20.5216 41.8908 21.634C41.5402 20.9796 41.1762 20.3253 40.7901 19.6665C40.4039 19.0078 39.9956 18.3446 39.6005 17.7077H39.5828ZM40.8078 28.5793C41.1895 27.9191 41.5535 27.2603 41.8997 26.603C42.3435 27.7373 42.7874 28.8541 43.0981 29.9447C41.9796 30.2021 40.8034 30.4115 39.5828 30.5773C40.0118 29.9317 40.4261 29.2656 40.8256 28.5793H40.8078ZM32.8939 12.5119C33.6929 13.3495 34.4785 14.2569 35.2463 15.2298C34.4874 15.1992 33.7106 15.1774 32.925 15.1774C32.1394 15.1774 31.336 15.1774 30.5593 15.2298C31.3182 14.2613 32.095 13.3495 32.8939 12.5119ZM23.0493 7.27678C23.386 7.10075 23.7645 7.0164 24.1456 7.03248C24.9453 7.06523 25.7295 7.25979 26.4492 7.60398C28.0758 8.35775 29.5732 9.35562 30.8877 10.5618L31.407 11.0286C30.104 12.4034 28.8941 13.8607 27.7852 15.3912C25.8958 15.5711 24.0203 15.8713 22.1704 16.2899C21.9751 15.4435 21.8154 14.6146 21.7266 13.8163C21.265 10.5225 21.7976 8.00969 23.0448 7.29423L23.0493 7.27678ZM20.7013 29.3951C19.8673 29.1448 19.0466 28.8536 18.2423 28.5225C15.091 27.2138 13.138 25.5342 13.138 24.0989C13.138 22.6636 15.0999 20.9927 18.2468 19.7058C19.0367 19.3842 19.8426 19.1017 20.6613 18.8594C21.2162 20.6668 21.8923 22.4361 22.6853 24.1556C21.9092 25.858 21.2465 27.6082 20.7013 29.3951ZM30.9099 37.7276C27.2747 40.9254 25.0022 41.2656 24.19 41.2656C23.8153 41.2779 23.4442 41.1905 23.1158 41.0126C21.8464 40.3015 21.3404 37.793 21.7443 34.4687C21.8474 33.6212 21.9956 32.7795 22.1882 31.9472C24.028 32.3637 25.893 32.6639 27.7719 32.8459C28.8896 34.3904 30.1114 35.8595 31.4292 37.2433L30.9099 37.7276ZM32.9383 35.7601C32.1394 34.9224 31.3537 34.015 30.5814 33.0422C31.3449 33.0771 32.1216 33.0945 32.9072 33.0945C33.6929 33.0945 34.4962 33.0945 35.273 33.0465C34.5051 34.015 33.7239 34.9224 32.9339 35.7601H32.9383ZM42.783 40.9952C42.4462 41.1765 42.066 41.2654 41.6822 41.2525C40.8744 41.2525 38.5752 40.9035 34.9534 37.7189L34.4341 37.2521C35.7356 35.8772 36.944 34.4198 38.0515 32.8895C39.9427 32.7121 41.8198 32.4119 43.6707 31.9908C43.866 32.8371 44.0213 33.666 44.1145 34.4644C44.5539 37.7538 44.0435 40.2666 42.7785 40.9777L42.783 40.9952ZM47.5766 28.588C46.8176 28.8934 46.0142 29.1769 45.162 29.43C44.6049 27.6227 43.9273 25.8535 43.1336 24.1338C43.9132 22.4333 44.579 20.6845 45.1265 18.8987C45.9605 19.1489 46.7811 19.4401 47.5854 19.7712C50.7324 21.08 52.6897 22.7596 52.6853 24.1949C52.6809 25.6301 50.7235 27.2836 47.5721 28.5705L47.5766 28.588ZM32.8939 28.143C33.6998 28.1439 34.4878 27.9098 35.1584 27.4705C35.8289 27.0311 36.3519 26.4062 36.6611 25.6748C36.9703 24.9433 37.0518 24.1382 36.8955 23.3611C36.7391 22.5841 36.3519 21.8701 35.7826 21.3094C35.2134 20.7487 34.4878 20.3665 33.6976 20.2111C32.9074 20.0557 32.0881 20.1342 31.3432 20.4365C30.5983 20.7388 29.9614 21.2514 29.5129 21.9095C29.0645 22.5677 28.8247 23.3417 28.8238 24.1338C28.8226 24.6599 28.927 25.181 29.1311 25.6674C29.3351 26.1538 29.6347 26.5958 30.0128 26.9682C30.3908 27.3406 30.8399 27.6361 31.3343 27.8376C31.8287 28.0392 32.3587 28.143 32.8939 28.143ZM5.81891 0V48.2719H60V0H5.81891ZM57.8828 46.1953H7.94052V2.08095H57.8828V46.1953ZM20.1553 31.4062C18.8238 36.938 19.4008 41.3311 22.055 42.8187C22.7024 43.1754 23.4347 43.3561 24.1767 43.3422C26.6533 43.3422 29.7781 41.6452 32.9339 38.7092C36.0852 41.6234 39.2011 43.3117 41.6733 43.3117C42.4276 43.3253 43.1721 43.1416 43.8304 42.7794C46.4669 41.2874 47.0084 36.9161 45.6991 31.4367C51.2073 29.8139 54.7892 27.1701 54.7936 24.1818C54.798 21.1934 51.194 18.5104 45.6591 16.8832C46.9907 11.3558 46.4092 6.95831 43.7594 5.47067C43.1097 5.11599 42.3765 4.93545 41.6334 4.94716C39.1611 4.94716 36.0364 6.64421 32.8806 9.58022C29.7248 6.66602 26.609 4.9777 24.1411 4.9777C23.3865 4.96131 22.6413 5.14518 21.984 5.50994C19.3475 7.00194 18.8016 11.3732 20.1154 16.8745C14.6072 18.493 11.0253 21.1367 11.0164 24.1294C11.0075 27.1222 14.6249 29.7746 20.1598 31.4062H20.1553ZM30.901 37.7276C27.2659 40.9254 24.9933 41.2656 24.1811 41.2656C23.8064 41.2779 23.4353 41.1905 23.107 41.0126C21.8375 40.3015 21.3316 37.793 21.7355 34.4687C21.8385 33.6212 21.9867 32.7795 22.1793 31.9472C24.0191 32.3637 25.8841 32.6639 27.763 32.8459C28.8807 34.3904 30.1026 35.8595 31.4203 37.2433L30.901 37.7276ZM41.9041 21.634C41.5535 20.9796 41.1895 20.3253 40.8034 19.6665C40.4172 19.0078 40.0044 18.3577 39.5961 17.7077C40.8034 17.8735 41.9707 18.0873 43.0759 18.3403C42.7519 19.4178 42.3613 20.5216 41.9086 21.634H41.9041ZM43.1114 29.9229C41.9929 30.1803 40.8167 30.3897 39.5961 30.5555C40.0133 29.9098 40.4217 29.2438 40.8211 28.5574C41.2206 27.8711 41.5845 27.2123 41.913 26.5812C42.379 27.7373 42.783 28.8454 43.1025 29.9447L43.1114 29.9229ZM40.7989 24.0989C40.253 25.2419 39.6449 26.3892 38.988 27.5235C38.3311 28.6578 37.6076 29.7833 36.8708 30.8478C35.5792 30.9481 34.2477 30.9961 32.8762 30.9961C31.5047 30.9961 30.213 30.9394 28.9303 30.8391C28.1935 29.7833 27.4834 28.684 26.8176 27.5453C26.1518 26.4067 25.5437 25.2681 24.9889 24.1294C25.5393 22.9864 26.1444 21.8434 26.8043 20.7004C27.47 19.5574 28.1846 18.445 28.9214 17.3805C30.213 17.2845 31.5446 17.2322 32.9161 17.2365C34.2876 17.2409 35.5792 17.2889 36.862 17.3892C37.5988 18.445 38.3045 19.5705 38.9703 20.683C39.636 21.7954 40.253 22.9821 40.8034 24.1207L40.7989 24.0989ZM26.2361 30.5904C25.0333 30.4203 23.866 30.2065 22.7563 29.9535C23.0848 28.8803 23.4798 27.7722 23.9325 26.6597C24.2787 27.3141 24.6471 27.9685 25.0288 28.6272C25.4106 29.286 25.7923 29.9317 26.2361 30.5904ZM24.9978 19.684C24.6116 20.3383 24.2477 20.9927 23.9059 21.6558C23.4413 20.5303 23.0345 19.4222 22.6853 18.3316C23.8083 18.0742 24.9845 17.8604 26.2051 17.6946C25.7923 18.3403 25.3972 19.0078 24.9978 19.684ZM32.9339 35.7601C32.1349 34.9224 31.3493 34.015 30.577 33.0422C31.3404 33.0771 32.1172 33.0945 32.9028 33.0945C33.6884 33.0945 34.4918 33.0945 35.2685 33.0465C34.5051 34.015 33.7239 34.9224 32.9339 35.7601ZM42.7785 40.9952C42.4417 41.1765 42.0615 41.2654 41.6778 41.2525C40.8699 41.2525 38.5708 40.9035 34.949 37.7189L34.4296 37.2521C35.7312 35.8772 36.9396 34.4198 38.047 32.8895C39.9382 32.7121 41.8154 32.4119 43.6662 31.9908C43.8615 32.8371 44.0169 33.666 44.1101 34.4644C44.5539 37.7538 44.0435 40.2666 42.7785 40.9777V40.9952ZM45.1221 18.8943C45.956 19.1446 46.7767 19.4358 47.581 19.7668C50.7279 21.0756 52.6853 22.7552 52.6809 24.1905C52.6764 25.6258 50.7235 27.3141 47.5721 28.6011C46.8131 28.9064 46.0098 29.19 45.1576 29.443C44.6005 27.6358 43.9229 25.8666 43.1292 24.1469C43.9103 22.435 44.576 20.6746 45.1221 18.8769V18.8943ZM34.9134 10.5662C38.5486 7.3684 40.8211 7.02375 41.6289 7.02375C42.0036 7.01192 42.3746 7.09932 42.7031 7.27678C43.9725 7.98788 44.4785 10.4964 44.0746 13.8207C43.9711 14.6696 43.823 15.5127 43.6307 16.3466C41.7915 15.9264 39.9263 15.6247 38.047 15.4435C36.928 13.9 35.7062 12.431 34.3897 11.0461C34.5584 10.8672 34.7359 10.7058 34.9179 10.5487L34.9134 10.5662ZM32.8939 12.5119C33.6929 13.3495 34.4785 14.2569 35.2463 15.2298C34.4874 15.1992 33.7106 15.1774 32.925 15.1774C32.1394 15.1774 31.336 15.1774 30.5593 15.2298C31.3182 14.2613 32.095 13.3495 32.8939 12.5119ZM23.0493 7.27678C23.386 7.10075 23.7645 7.0164 24.1456 7.03248C24.9453 7.06523 25.7295 7.25979 26.4492 7.60398C28.0758 8.35775 29.5732 9.35562 30.8877 10.5618L31.407 11.0286C30.104 12.4034 28.8941 13.8607 27.7852 15.3912C25.8958 15.5711 24.0203 15.8713 22.1704 16.2899C21.9751 15.4435 21.8154 14.6146 21.7266 13.8163C21.265 10.5225 21.7976 8.00969 23.0448 7.29423L23.0493 7.27678ZM18.2468 19.7058C19.0367 19.3842 19.8426 19.1017 20.6613 18.8594C21.2162 20.6668 21.8923 22.4361 22.6853 24.1556C21.9064 25.8564 21.2407 27.6051 20.6924 29.3907C19.8584 29.1404 19.0378 28.8492 18.2335 28.5182C15.0821 27.2094 13.1292 25.5298 13.1292 24.0945C13.1292 22.6592 15.0999 20.9927 18.2468 19.7058ZM32.8939 20.142C32.088 20.1412 31.3 20.3752 30.6295 20.8145C29.9589 21.2539 29.436 21.8788 29.1268 22.6103C28.8176 23.3417 28.736 24.1469 28.8923 24.9239C29.0487 25.7009 29.436 26.4149 30.0052 26.9756C30.5744 27.5363 31.3 27.9185 32.0902 28.0739C32.8804 28.2293 33.6998 28.1509 34.4446 27.8485C35.1895 27.5462 35.8264 27.0336 36.2749 26.3755C36.7233 25.7174 36.9632 24.9433 36.964 24.1512C36.9681 23.6233 36.8659 23.0998 36.6632 22.6109C36.4605 22.122 36.1613 21.6774 35.783 21.3027C35.4046 20.928 34.9545 20.6306 34.4587 20.4276C33.9629 20.2247 33.431 20.1202 32.8939 20.1202V20.142ZM32.8939 20.142C32.088 20.1412 31.3 20.3752 30.6295 20.8145C29.9589 21.2539 29.436 21.8788 29.1268 22.6103C28.8176 23.3417 28.736 24.1469 28.8923 24.9239C29.0487 25.7009 29.436 26.4149 30.0052 26.9756C30.5744 27.5363 31.3 27.9185 32.0902 28.0739C32.8804 28.2293 33.6998 28.1509 34.4446 27.8485C35.1895 27.5462 35.8264 27.0336 36.2749 26.3755C36.7233 25.7174 36.9632 24.9433 36.964 24.1512C36.9681 23.6233 36.8659 23.0998 36.6632 22.6109C36.4605 22.122 36.1613 21.6774 35.783 21.3027C35.4046 20.928 34.9545 20.6306 34.4587 20.4276C33.9629 20.2247 33.431 20.1202 32.8939 20.1202V20.142ZM32.8939 20.142C32.088 20.1412 31.3 20.3752 30.6295 20.8145C29.9589 21.2539 29.436 21.8788 29.1268 22.6103C28.8176 23.3417 28.736 24.1469 28.8923 24.9239C29.0487 25.7009 29.436 26.4149 30.0052 26.9756C30.5744 27.5363 31.3 27.9185 32.0902 28.0739C32.8804 28.2293 33.6998 28.1509 34.4446 27.8485C35.1895 27.5462 35.8264 27.0336 36.2749 26.3755C36.7233 25.7174 36.9632 24.9433 36.964 24.1512C36.9681 23.6233 36.8659 23.0998 36.6632 22.6109C36.4605 22.122 36.1613 21.6774 35.783 21.3027C35.4046 20.928 34.9545 20.6306 34.4587 20.4276C33.9629 20.2247 33.431 20.1202 32.8939 20.1202V20.142ZM54.798 24.173C54.798 21.1672 51.1984 18.5017 45.6636 16.8745C46.9951 11.3471 46.4137 6.94959 43.7639 5.46195C43.1141 5.10726 42.3809 4.92673 41.6378 4.93844C39.1656 4.93844 36.0408 6.63548 32.885 9.5715C29.7292 6.6573 26.6134 4.96898 24.1456 4.96898C23.3909 4.95259 22.6458 5.13645 21.9885 5.50121C19.352 6.99321 18.806 11.3645 20.1198 16.8657C14.6116 18.4842 11.0297 21.128 11.0209 24.1207C11.012 27.1134 14.6249 29.7921 20.1598 31.4149C18.8282 36.9467 19.4052 41.3398 22.0595 42.8274C22.7068 43.1841 23.4391 43.3648 24.1811 43.3509C26.6578 43.3509 29.7825 41.6539 32.9383 38.7179C36.0897 41.6321 39.2055 43.3204 41.6778 43.3204C42.4321 43.334 43.1765 43.1503 43.8349 42.7882C46.4714 41.2962 47.0129 36.9249 45.7035 31.4455C51.2117 29.7964 54.7936 27.1527 54.798 24.1643V24.173ZM34.9179 10.5487C38.553 7.35095 40.8256 7.0063 41.6334 7.0063C42.008 6.99447 42.379 7.08187 42.7075 7.25933C43.9769 7.97043 44.4829 10.4789 44.079 13.8032C43.9755 14.6521 43.8274 15.4953 43.6351 16.3291C41.7959 15.9089 39.9307 15.6073 38.0515 15.4261C36.9324 13.8826 35.7106 12.4135 34.3941 11.0286C34.5584 10.8672 34.7359 10.7058 34.9179 10.5487ZM23.9148 26.6379C24.261 27.2923 24.6294 27.9467 25.0111 28.6054C25.3928 29.2642 25.7923 29.9317 26.2361 30.5904C25.0333 30.4203 23.866 30.2065 22.7563 29.9535C23.067 28.8454 23.462 27.7547 23.9148 26.6379ZM22.6853 18.3316C23.8083 18.0742 24.9845 17.8604 26.2051 17.6946C25.7612 18.3403 25.3795 19.0034 24.98 19.697C24.5806 20.3907 24.2299 21.0058 23.8881 21.6689C23.4354 20.5347 23.0345 19.4222 22.6853 18.3316ZM24.9978 24.1512C25.5482 23.0082 26.1533 21.8652 26.8131 20.7222C27.4789 19.5793 28.1935 18.4668 28.9303 17.4023C30.2219 17.3063 31.5535 17.254 32.925 17.2584C34.2965 17.2627 35.5881 17.3107 36.8708 17.4111C37.6076 18.4668 38.3134 19.5923 38.9791 20.7048C39.6449 21.8173 40.2574 22.9821 40.8078 24.1207C40.2619 25.2637 39.6538 26.4111 38.9969 27.5453C38.34 28.6796 37.6165 29.8051 36.8797 30.8696C35.5881 30.9699 34.2565 31.0179 32.885 31.0179C31.5135 31.0179 30.2219 30.9612 28.9392 30.8609C28.2024 29.8051 27.4922 28.7058 26.8265 27.5671C26.1607 26.4285 25.5703 25.2899 25.0155 24.1512H24.9978ZM39.5828 17.7077C40.7901 17.8735 41.9574 18.0873 43.0626 18.3403C42.7341 19.4178 42.3435 20.5216 41.8908 21.634C41.5402 20.9796 41.1762 20.3253 40.7901 19.6665C40.4039 19.0078 39.9956 18.3446 39.6005 17.7077H39.5828ZM40.8078 28.5793C41.1895 27.9191 41.5535 27.2603 41.8997 26.603C42.3435 27.7373 42.7874 28.8541 43.0981 29.9447C41.9796 30.2021 40.8034 30.4115 39.5828 30.5773C40.0118 29.9317 40.4261 29.2656 40.8256 28.5793H40.8078ZM32.8939 12.5119C33.6929 13.3495 34.4785 14.2569 35.2463 15.2298C34.4874 15.1992 33.7106 15.1774 32.925 15.1774C32.1394 15.1774 31.336 15.1774 30.5593 15.2298C31.3182 14.2613 32.095 13.3495 32.8939 12.5119ZM23.0493 7.27678C23.386 7.10075 23.7645 7.0164 24.1456 7.03248C24.9453 7.06523 25.7295 7.25979 26.4492 7.60398C28.0758 8.35775 29.5732 9.35562 30.8877 10.5618L31.407 11.0286C30.104 12.4034 28.8941 13.8607 27.7852 15.3912C25.8958 15.5711 24.0203 15.8713 22.1704 16.2899C21.9751 15.4435 21.8154 14.6146 21.7266 13.8163C21.265 10.5225 21.7976 8.00969 23.0448 7.29423L23.0493 7.27678ZM20.7013 29.3951C19.8673 29.1448 19.0466 28.8536 18.2423 28.5225C15.091 27.2138 13.138 25.5342 13.138 24.0989C13.138 22.6636 15.0999 20.9927 18.2468 19.7058C19.0367 19.3842 19.8426 19.1017 20.6613 18.8594C21.2162 20.6668 21.8923 22.4361 22.6853 24.1556C21.9092 25.858 21.2465 27.6082 20.7013 29.3951ZM30.9099 37.7276C27.2747 40.9254 25.0022 41.2656 24.19 41.2656C23.8153 41.2779 23.4442 41.1905 23.1158 41.0126C21.8464 40.3015 21.3404 37.793 21.7443 34.4687C21.8474 33.6212 21.9956 32.7795 22.1882 31.9472C24.028 32.3637 25.893 32.6639 27.7719 32.8459C28.8896 34.3904 30.1114 35.8595 31.4292 37.2433L30.9099 37.7276ZM32.9383 35.7601C32.1394 34.9224 31.3537 34.015 30.5814 33.0422C31.3449 33.0771 32.1216 33.0945 32.9072 33.0945C33.6929 33.0945 34.4962 33.0945 35.273 33.0465C34.5051 34.015 33.7239 34.9224 32.9339 35.7601H32.9383ZM42.783 40.9952C42.4462 41.1765 42.066 41.2654 41.6822 41.2525C40.8744 41.2525 38.5752 40.9035 34.9534 37.7189L34.4341 37.2521C35.7356 35.8772 36.944 34.4198 38.0515 32.8895C39.9427 32.7121 41.8198 32.4119 43.6707 31.9908C43.866 32.8371 44.0213 33.666 44.1145 34.4644C44.5539 37.7538 44.0435 40.2666 42.7785 40.9777L42.783 40.9952ZM47.5766 28.588C46.8176 28.8934 46.0142 29.1769 45.162 29.43C44.6049 27.6227 43.9273 25.8535 43.1336 24.1338C43.9132 22.4333 44.579 20.6845 45.1265 18.8987C45.9605 19.1489 46.7811 19.4401 47.5854 19.7712C50.7324 21.08 52.6897 22.7596 52.6853 24.1949C52.6809 25.6301 50.7235 27.2836 47.5721 28.5705L47.5766 28.588ZM32.8939 28.143C33.6998 28.1439 34.4878 27.9098 35.1584 27.4705C35.8289 27.0311 36.3519 26.4062 36.6611 25.6748C36.9703 24.9433 37.0518 24.1382 36.8955 23.3611C36.7391 22.5841 36.3519 21.8701 35.7826 21.3094C35.2134 20.7487 34.4878 20.3665 33.6976 20.2111C32.9074 20.0557 32.0881 20.1342 31.3432 20.4365C30.5983 20.7388 29.9614 21.2514 29.5129 21.9095C29.0645 22.5677 28.8247 23.3417 28.8238 24.1338C28.8226 24.6599 28.927 25.181 29.1311 25.6674C29.3351 26.1538 29.6347 26.5958 30.0128 26.9682C30.3908 27.3406 30.8399 27.6361 31.3343 27.8376C31.8287 28.0392 32.3587 28.143 32.8939 28.143ZM2.12605 51.919V3.62967L0 5.7237V54H54.1722L56.2938 51.919H2.12605Z" fill="#09D3AC"/>
</svg>
