<?xml version="1.0" standalone="no"?>
<!DOCTYPE svg PUBLIC "-//W3C//DTD SVG 1.0//EN" "http://www.w3.org/TR/2001/REC-SVG-20010904/DTD/svg10.dtd">
<svg xmlns="http://www.w3.org/2000/svg" xmlns:xlink="http://www.w3.org/1999/xlink" id="body_1" width="174" height="100">

<g transform="matrix(0.65909094 0 0 0.65789473 0 0)">
	<g transform="matrix(1 0 0 1 0 0)">
		<g transform="matrix(0.26639757 0 0 0.26639757 -0 0.15337697)">
			<g transform="matrix(0.1 0 -0 -0.1 0 570)">
                <path d="M2235 5530C 2050 5515 1895 5482 1685 5410C 1536 5359 1314 5251 1195 5172C 718 4854 413 4354 305 3710C 271 3509 260 3368 260 3135C 260 2468 416 1770 732 1020C 797 865 973 509 980 517C 993 532 1020 646 1079 945C 1149 1294 1191 1456 1255 1612C 1356 1860 1480 2044 1662 2215C 1828 2372 2012 2486 2300 2610C 2906 2871 3302 3206 3520 3639C 3718 4032 3726 4479 3542 4845C 3308 5312 2808 5574 2235 5530zM2560 4845C 2764 4796 2917 4655 2986 4450C 3015 4365 3013 4179 2982 4080C 2920 3886 2801 3716 2617 3563C 2449 3423 2297 3336 1988 3200C 1625 3041 1378 2877 1143 2638C 1087 2582 1031 2522 1017 2505C 1003 2489 990 2477 987 2480C 979 2489 941 2770 929 2915C 915 3084 923 3392 945 3540C 1046 4211 1404 4641 2009 4815C 2201 4870 2406 4881 2560 4845z" stroke="none" fill="#000000" fill-rule="nonzero" />
                <path d="M3653 3083L3600 3079L3600 2689L3600 2300L3685 2300L3770 2300L3770 2444L3770 2587L3851 2594C 3984 2605 4068 2655 4106 2746C 4126 2794 4124 2906 4101 2955C 4059 3046 3985 3081 3821 3085C 3757 3086 3681 3086 3653 3083zM3921 2922C 3962 2877 3962 2804 3922 2759C 3899 2733 3886 2728 3834 2723L3834 2723L3773 2718L3767 2786C 3758 2878 3758 2945 3768 2954C 3772 2958 3802 2960 3834 2958C 3885 2954 3897 2949 3921 2922z" stroke="none" fill="#000000" fill-rule="nonzero" />
                <path d="M7568 2897C 7542 2889 7513 2877 7503 2870C 7454 2833 7426 2801 7402 2755C 7377 2709 7375 2696 7375 2585C 7375 2472 7377 2462 7403 2414C 7452 2326 7532 2292 7664 2303C 7717 2307 7833 2340 7848 2354C 7851 2357 7843 2381 7832 2407C 7809 2461 7810 2460 7709 2434C 7670 2424 7632 2420 7616 2424C 7581 2433 7540 2473 7540 2498C 7540 2514 7550 2519 7598 2524C 7667 2532 7764 2576 7802 2616C 7877 2697 7862 2827 7770 2879C 7722 2906 7630 2914 7568 2897zM7671 2780C 7698 2765 7696 2710 7667 2682C 7641 2657 7579 2630 7549 2630C 7529 2630 7528 2634 7534 2673C 7547 2757 7615 2810 7671 2780z" stroke="none" fill="#000000" fill-rule="nonzero" />
                <path d="M8767 2900C 8727 2888 8673 2844 8655 2810C 8633 2767 8636 2692 8663 2645C 8681 2614 8703 2596 8774 2559C 8867 2510 8880 2499 8880 2463C 8880 2416 8798 2415 8707 2462C 8685 2473 8667 2480 8665 2478C 8657 2469 8620 2375 8620 2364C 8620 2342 8729 2307 8812 2302C 8877 2299 8897 2301 8935 2320C 9039 2370 9073 2508 9002 2591C 8987 2609 8944 2638 8905 2656C 8824 2693 8797 2718 8802 2752C 8804 2771 8812 2776 8843 2778C 8864 2780 8902 2774 8928 2766C 8953 2757 8977 2750 8981 2750C 8989 2750 9035 2859 9029 2864C 9027 2866 8996 2877 8961 2889C 8895 2910 8817 2915 8767 2900z" stroke="none" fill="#000000" fill-rule="nonzero" />
                <path d="M9432 2897C 9311 2853 9237 2707 9254 2542C 9266 2431 9312 2356 9390 2322C 9442 2299 9569 2303 9653 2330C 9690 2341 9723 2357 9726 2365C 9729 2372 9723 2399 9712 2424L9712 2424L9692 2468L9630 2449C 9562 2428 9499 2424 9469 2440C 9453 2449 9420 2498 9420 2513C 9420 2516 9450 2523 9487 2530C 9617 2552 9707 2615 9730 2699C 9750 2776 9716 2856 9646 2889C 9598 2913 9488 2917 9432 2897zM9564 2774C 9587 2752 9584 2726 9554 2691C 9529 2661 9466 2636 9431 2642C 9414 2645 9414 2649 9425 2695C 9446 2775 9521 2818 9564 2774z" stroke="none" fill="#000000" fill-rule="nonzero" />
                <path d="M4553 2889C 4487 2877 4443 2852 4400 2803C 4346 2741 4325 2675 4327 2570C 4329 2435 4370 2351 4453 2311C 4530 2273 4622 2289 4685 2350L4685 2350L4715 2379L4739 2334C 4766 2284 4769 2283 4853 2319L4853 2319L4898 2338L4871 2392C 4846 2443 4845 2451 4842 2652C 4839 2835 4837 2860 4822 2864C 4802 2870 4693 2887 4635 2893C 4613 2896 4576 2894 4553 2889zM4675 2650C 4674 2547 4672 2531 4650 2491C 4603 2407 4550 2390 4512 2448C 4499 2469 4495 2497 4495 2580C 4495 2732 4523 2771 4625 2767L4625 2767L4675 2765L4675 2650z" stroke="none" fill="#000000" fill-rule="nonzero" />
                <path d="M5356 2885C 5335 2878 5302 2857 5284 2839C 5265 2821 5249 2808 5246 2811C 5244 2813 5235 2830 5226 2848C 5203 2893 5189 2896 5125 2869C 5083 2852 5071 2842 5076 2831C 5119 2734 5123 2705 5128 2502L5128 2502L5132 2299L5209 2302L5285 2305L5285 2480C 5285 2669 5289 2688 5343 2738C 5370 2764 5424 2770 5443 2751C 5451 2743 5457 2672 5460 2522L5460 2522L5465 2305L5543 2302L5621 2299L5618 2537C 5615 2755 5613 2778 5594 2815C 5555 2889 5452 2920 5356 2885z" stroke="none" fill="#000000" fill-rule="nonzero" />
                <path d="M6049 2887C 5929 2842 5860 2729 5860 2580C 5860 2407 5940 2301 6072 2300C 6141 2300 6176 2312 6216 2351L6216 2351L6247 2381L6274 2336L6301 2291L6353 2311C 6381 2323 6411 2334 6418 2337C 6433 2344 6434 2343 6411 2382C 6381 2433 6370 2519 6370 2700L6370 2700L6370 2867L6313 2879C 6218 2899 6090 2902 6049 2887zM6194 2774C 6207 2769 6210 2750 6210 2666C 6210 2545 6199 2501 6158 2455C 6123 2414 6083 2409 6054 2441C 6038 2459 6035 2478 6035 2580C 6035 2685 6037 2702 6056 2727C 6090 2773 6147 2792 6194 2774z" stroke="none" fill="#000000" fill-rule="nonzero" />
                <path d="M8140 2893C 8132 2889 8106 2879 8082 2869L8082 2869L8039 2850L8059 2812C 8090 2752 8100 2669 8100 2483L8100 2483L8100 2310L8180 2310L8260 2310L8260 2488C 8260 2647 8262 2668 8280 2698C 8305 2739 8341 2753 8386 2741L8386 2741L8419 2732L8434 2783C 8464 2887 8464 2887 8438 2894C 8365 2913 8279 2892 8242 2845C 8230 2829 8218 2819 8217 2821C 8215 2823 8203 2842 8191 2863C 8168 2901 8165 2902 8140 2893z" stroke="none" fill="#000000" fill-rule="nonzero" />
                <path d="M6650 2662C 6650 2446 6651 2432 6673 2390C 6705 2327 6738 2307 6814 2302C 6960 2293 7064 2361 7109 2495C 7127 2548 7134 2596 7138 2692C 7140 2761 7140 2834 7136 2854L7136 2854L7129 2890L7050 2890L6971 2890L6976 2838C 6979 2809 6983 2777 6985 2767C 6991 2738 6973 2567 6959 2522C 6933 2435 6866 2395 6824 2441C 6807 2460 6805 2482 6802 2676L6802 2676L6799 2890L6724 2890L6650 2890L6650 2662z" stroke="none" fill="#000000" fill-rule="nonzero" />
                <path d="M5522 1742C 5428 1708 5359 1636 5325 1535C 5302 1468 5294 1297 5310 1218C 5334 1094 5402 1008 5501 975C 5567 953 5695 953 5762 976C 5833 999 5909 1075 5941 1155C 5962 1209 5965 1231 5965 1365C 5965 1512 5964 1516 5934 1580C 5876 1703 5802 1750 5660 1757C 5594 1760 5563 1756 5522 1742zM5713 1603C 5732 1594 5751 1569 5768 1532C 5793 1480 5795 1464 5795 1350C 5795 1240 5792 1219 5772 1178C 5745 1123 5716 1102 5658 1094C 5600 1087 5533 1121 5508 1171C 5469 1248 5461 1408 5490 1512C 5519 1614 5615 1653 5713 1603z" stroke="none" fill="#000000" fill-rule="nonzero" />
                <path d="M3643 1743L3601 1739L3607 1352C 3610 1139 3614 963 3616 961C 3618 959 3688 957 3772 957C 3890 956 3938 960 3981 973C 4130 1019 4206 1121 4225 1302C 4233 1380 4217 1494 4189 1560C 4164 1618 4099 1683 4040 1709C 3962 1743 3798 1757 3643 1743zM3940 1587C 4018 1549 4050 1479 4050 1345C 4050 1165 3989 1090 3843 1087L3843 1087L3775 1085L3772 1354L3770 1622L3832 1615C 3867 1612 3915 1599 3940 1587z" stroke="none" fill="#000000" fill-rule="nonzero" />
                <path d="M4697 1743C 4690 1731 4400 972 4400 965C 4400 962 4437 960 4481 962L4481 962L4562 965L4595 1055L4627 1145L4757 1148L4887 1151L4919 1055L4952 960L5036 960C 5097 960 5120 963 5119 973C 5119 979 5052 1156 4971 1365L4971 1365L4824 1745L4763 1748C 4729 1750 4699 1747 4697 1743zM4794 1418C 4810 1367 4825 1317 4827 1308C 4832 1292 4824 1290 4755 1290C 4698 1290 4679 1293 4682 1303C 4685 1309 4702 1359 4719 1413C 4737 1466 4755 1510 4759 1510C 4762 1510 4778 1468 4794 1418z" stroke="none" fill="#000000" fill-rule="nonzero" />
			</g>
		</g>
	</g>
</g>
</svg>